<svg xmlns="http://www.w3.org/2000/svg" viewBox="0 0 735 291.3"><path fill="#F47B20" d="M303.2 6c-33.1.8-56.2 23.5-67.1 36.9 0 0-.5.6-.9 1.1-.7-.2-1.3-.5-1.3-.5-22.7-8.2-48.3-9.7-74.1-4.5-24.8 5.1-60.5 17.9-86.3 38.8C28 114.5 4 158.7 6.1 202.3c1.2 25.2 12.8 47.1 33.6 63.1 34.1 26.3 90.4 20.3 113.1 16.5 25.3-4.3 422-75.4 474-85.3 47.4-9.1 92.5-25.1 101.5-81.1.5-3.3.8-6.7.8-10v-.5c0-13.7-4.3-26.5-11.7-35.2-13.9-16.1-37.2-18-53.6-18-22.6-.1-265.9 4.6-293.6 5.1h-1.8l-.2-1.8c-1.5-11.1-6-21.2-13-29.2-8.4-9.4-24.2-20.6-52-19.9z"/><path fill="#232E83" d="M303 0c-34.2.8-58.4 23.5-69.8 37-23.1-7.8-48.9-9.1-74.6-3.9-25.5 5.2-62.2 18.4-88.9 40-47 38-71.7 84-69.6 129.6 1.3 27 13.7 50.4 35.9 67.5 36 27.8 94.3 21.6 117.7 17.7 24.8-4.2 421.1-75.2 474.1-85.3 49.5-9.4 96.6-26.4 106.3-86 .6-3.7.9-7.3.9-10.9.1-15.3-4.7-29.8-13.1-39.6-15.5-18-40.6-20.1-58.1-20.1-14 0-114.4 1.7-290.5 5.1-2.1-11-6.8-20.9-13.7-28.8C350.4 11.6 333.1-.7 303 0zm56.7 22.1zm-122 22.1C248.3 31 271 8.8 303.2 8c27-.7 42.3 10.2 50.4 19.4 6.8 7.7 11.1 17.4 12.5 28.1l.4 3.6 3.6-.1c27.7-.5 270.8-5.2 293.6-5.1 15.9 0 38.7 1.9 52 17.4 7.1 8.3 11.2 20.6 11.2 33.8v.5c0 3.3-.3 6.5-.8 9.7-8.8 54.7-53.2 70.5-99.9 79.4-52 9.9-448.7 81-474 85.3-22.4 3.8-78 9.7-111.5-16.1C20.4 248.3 9.1 227 7.9 202.3c-2-43 21.6-86.6 66.6-122.9 25.6-20.6 60.9-33.3 85.4-38.3 25.5-5.2 50.7-3.7 73 4.4l2.7 1 2.1-2.3z"/><path fill="#FFF" d="M703.4 112.6l-2.1-4.8-.7-1.6c-.1-.1-.2-.2-.4-.3-.2-.1-.6-.1-1.1.3l-7.7 5.8.2-3.2c.5-6.5-.7-18.2-6.2-23.6-5.1-5-12.3-7.3-21-6.7-9.1.7-18.8 4.1-25.1 9.3-9.4 7.7-15.3 21.3-15.3 21.3s.5-4.3.5-8.2c0-6.4-1.7-11.5-5.2-15-4.1-4.4-10.5-6.2-18.8-5.6-2.9.2-10.2 2.7-14.7 7.2.4-1.4 1.8-5.9 1.8-5.9l-31.2 1.6-8.9 6.8-5.7 25.6s-.4-1-.6-1.4c-3.1-6.8-9.2-12.8-18.9-11.9-5.5.5-10.6 2.1-15.2 4.7l-2.9 1.7 6-24.4-38.2 1.4-11.7 10.2 2.7-10-42.2.4-1.9 7-.1-.1-1.6-2.2c-1.6-2.2-4.5-4.1-6.5-4.9-9-3.6-25.8-.5-33.8 6.3-18.5 15.6-19.3 41.8-20.4 57.3-.8 11.7-1.9 16.4-2.9 17.4.3-8.4-4.2-15.5-8.8-18.6-6.1-4.1-14.8-4.2-22.3-1.7-16 5.4-19.1 14.5-19.1 14.5l23.9-70.4s-9.5.3-13.5.5c13.1-3.5 20.9-12.3 21.6-24.7v-1.1c0-6.2-2.8-12.5-7.7-16.9-3.7-3.3-12.1-6.8-20.4-6.9-4.5 0-10.4.9-15.9 2.5-7.3 2.1-21.6 10.1-23.3 25.6-.8 7.6.3 12.7 4.1 17.5 1.6 2 5.1 4.3 9.4 5.2-5.4.2-9.7.3-10 .3-.7.6-6.9 6.4-7.4 6.8-.9 2.8-6.7 21.8-10.8 32.4-3.6 9.4-7.8 18.4-12.4 26.4-13.5 23.7-30.8 38.9-49.9 44-13.7 3.7-23.6 3.4-31.9-.8-8.4-4.2-14.4-17-14.3-30.4.1-14.1 6.3-32.7 10.5-40.9 14.5-28.5 26.1-35.8 36.5-39.6 8.6-3.1 14.6-2.3 15.9-1.5-2.1 1.2-3.8 2.2-3.8 2.2-14.8 8.6-24.7 22.5-25.8 36.5-.7 8.8 1.9 16.7 7.3 22.3 5.3 5.5 13.2 8.1 22.2 7.2 20.4-1.9 39.5-21.7 40.8-42.4.8-11.7-2.2-21.2-8.8-28.4-11-12-24-16.2-47.8-15.6-21.8.6-46.3 9-67.3 23.1-17.9 12-41.7 34-53.2 70.3-6.8 21.5-1.3 48.9 12.6 62.4 18.6 18 42.1 22.7 78.6 15.5 24.7-4.9 48.8-18.8 71.6-41.6l2-2 .4 2.8c.8 4.9 2.5 9 5.2 12.2 4.3 5.3 13.1 11 30.8 8.6 11.8-1.6 25.3-7.7 41.2-18.7l.8-.5.8.5c6.9 4.5 16.3 8.6 33.4 5l.3-.1c6.4-1.3 23.4-4.9 36.9-24.1 1.8-2.6 3.6-5.7 5.5-10l2.3-5.1.4 5.6c.6 7.8 1.7 13.4 5.6 17.2 4.8 4.7 12 6.6 20.3 5.3 16.1-2.5 27.1-15.9 34.1-25.7l1.4-1.9 1.1 2.1c5.7 10.9 20.9 16.2 38.8 13.5 17-2.6 25.5-10.5 32.8-19.3l1.4-1.8-3.3 13.5 44-6.9 8-33s-.2 8.9.8 13.7c1 4.8 3 8.8 4.9 10.7 4.3 4.2 11.5 5 16.1 4.3 7.1-1.1 17.6-4.3 27.3-18.9l1.5-2.3 1 2.5c3.1 7.4 14.5 12.3 25 10.6 14.2-2.3 24.9-10.4 31-23.4l.3-.6.6-.2c7.3-2.3 14.4-9.9 16.4-17.8.2-.7.6-2.7.1-4zM460 96.8c.1-.3.2-.6.2-.9.1.1 0 .4-.2.9z"/><g fill="#232E83"><path d="M303 87.2c13.8-.6 27.3-6.8 28.4-21.1.7-9.6-6.6-19.5-21.8-20.4-8.4-.5-16.1 1.5-21.6 5.7-4.2 3.2-7.1 7.5-8.4 13-1.5 6.2-.8 11.4 2.2 15.4 3.9 5.1 11.5 7.8 21.2 7.4z"/><path d="M698.7 110.6c-2 4.4-6.1 8.9-9.7 9.5l-1.6.4s1.5-9.7 1.5-12.6c.3-13.3-2.8-27.2-23.6-26.1-12.7.7-31.3 11.8-34.2 35.7v.2c0 .1-.1.3-.1.5-3.2 8.3-9 20-13.1 20.5-.9.1-1.7-.2-2.3-.8-.8-.7-1.2-1.9-1.1-3.4.1-2.6 1.1-6.5 2.3-11.6 1.7-6.7 3.1-13 3.8-20 1.5-16.3-8.5-19.5-18.8-18.7-7.6.6-14.7 5.1-16.7 7.4l-3.7 4.2s1.7-8 2.2-10.2c-3 .1-21.3.7-23.2.8l-8.2 33.1c-2.8 3.8-6.8 6.9-10.1 7.8l-1.6.4-.2-1.7c-.2-1.7-.4-3.3-.8-5-.5-3.7-3.7-16.4-16.1-15.4-31.9 2.7-31 42.2-11.9 36.6l2.2-.7-.4 2.4c-2.5 15.7-9.3 24-18.4 25.2-1.4.2-2.7-.2-3.7-1.2-1.6-1.5-2.5-4.4-2.4-7.8.2-7.7 15.5-71.9 15.5-71.9s-27.6 1-29.6 1.1c-1.4 5.9-7.5 31.4-7.6 31.5l-.9 3.4c-1.2 4.3-2 7.2-2.5 10.2v.2c-.1.2-.1.4-.2.5-4.6 12.1-12.8 25.2-19 25.9-1.2.1-2.3-.2-3.1-1-.9-.8-1.4-2.1-1.3-3.6v-.1l.5-5.3s15.8-57.5 16.8-61.3c-3.5.1-33.8.7-33.8.7l-3 10.5c-.8-8.5-18.8-20-32.3-7.8-14.3 12.9-18.2 32.2-20.4 51.2 0 0-.2.7-.2.8-3 22.9-8.3 38.6-24.3 40.7-3.6.5-6.9.3-9.2-1.1 5.5-4.2 8.9-7.6 11.5-12 5.9-9.8 3.2-18.4-2.9-22.5-12.4-8.1-25.9 1.8-28.3 14.4-1.5 7.7 1.2 14.2 3.6 18-4.3 2.4-7.7 5.1-13.6 5.9-3.5.5-7-1.3-8.1-2.9-3.5-4.8 1.2-20.1 1.9-22.1 0 0 21.9-65.1 23.2-69.1-3.8.2-44.1 1.5-46.1 1.6-1.4 4.1-6.5 20-11.7 34.7-10.3 28.7-40.3 68-71.1 75.9-16.4 4.3-29.2 3.5-37.4-1.5-11.1-6.8-17.4-23.2-13.1-46.1 3-16.2 5.7-22.2 10-31.4 25.8-54.9 67.3-42.5 64.7-38.3-4.2 1.4-7.9 3.6-7.9 3.6-6.6 3.5-17.3 13.9-17.7 26.8-.3 8.3 2 15 6.5 19.4 4.4 4.3 10.9 6.3 18.2 5.6 16.4-1.5 29.7-13.8 30.3-32.1.3-9.9-2.4-18-8.2-24-9.2-9.6-20-14.4-44-13.7-37 1-93.5 27.6-109.7 86.4-5.5 19.9 1.7 43.8 13.6 54.7 16.5 15.1 37 20.7 72.9 13.9 32-6 58.2-27.8 77.5-50.7 0 .4 0 .7-.1 1.1-4.5 16.8 1.7 34.7 29.7 31.1 11.7-1.5 32.3-8.2 46.7-19.4 6.6 5.8 18 9.1 31 7.2 5.3-.8 19-4.4 30.9-21.6 9.5-13.6 14.2-40 16.8-54.3 1.2-6.6 2-11 3-12.9.9-1.7 1.7-3.8 4.2-4.9 5-2.1 7.6 2.8 6.6 6.4-1 3.6-6.2 21.9-6.2 21.9l-1 2.9c-3.1 8.9-6.5 19-6.8 29.6-.2 7.8 1.8 14 5.9 17.8 3.8 3.5 9.2 4.9 15.6 4 17.6-2.6 30.2-20.4 36.1-30.9l.8-1.5 1.2-2.1.7 3.9c2.8 15.6 15.1 21.8 33.5 19.1 23.9-3.5 38.3-15.9 42.7-37.5l.2-.9.8-.3c2.2-.8 4.4-2 6.6-3.4l1.8-1.2-8.5 34.5c3.4-.5 25.8-4.3 27.6-4.5.5-2.1 10.3-44 10.3-44 1.7-7.3 6.4-21.1 11.8-21.4 1-.1 2 .3 2.8 1.2 1.2 1.2 1.8 3.2 1.8 5.5-.1 4.6-1.5 9.7-3.2 15.6-2 7.1-4.1 15.9-4.9 24.5-1.3 14.6 10.9 14.5 14.6 13.9 8.7-1.3 20.2-5.8 30-27.4l.5 2.3c2.5 12 13.2 19.1 24.4 17.3 13.8-2.1 23.2-9.6 28.4-22l.4-.8.8-.1c5.4-.6 12.9-6.9 14.8-14.2-.8-.3-.9-1.8-1.9-3.1zm-365.9 46c4.9.2 6.9 3.3 4.2 9.3-1.4 3-5.2 7.5-10.3 11.3-6.3-9.9-.2-20.9 6.1-20.6zm183.4-26.2c-.9 1.3-2.9 2.2-6.1 2.7-3.3.6-4.1-1.2-4.2-2-.7-2.9 2.4-7.5 5.2-8.8 1.6-.7 3.4-.4 3.9.2 2.3 2.6 1.2 7.9 1.2 7.9zm152.1-1.4c-2 6-4.7 12.4-10 13.1-1.8.2-3.3-.2-4.5-1.2-1.8-1.6-2.6-3.1-2.4-8.6.3-12.8 7-44.7 16-45.1 1.2-.1 2.4.4 3.3 1.4 1.9 2.1 2.7 6.1 2.1 10.9l-.1.6s-9.5.4-10.5 14.5c-.6 8.5 6.5 12.5 6.5 12.5l-.4 1.9zm2.5-9.4c-3.1-1.9-2.9-7.5-1.3-9.6.8-1.1 2.1-1.2 2.8-.8-.1 3.4-.3 6.5-1.5 10.4z"/></g></svg>